<?xml version="1.0" encoding="utf-8"?>
<!-- Generator: Adobe Illustrator 16.0.0, SVG Export Plug-In . SVG Version: 6.00 Build 0)  -->
<!DOCTYPE svg PUBLIC "-//W3C//DTD SVG 1.1//EN" "http://www.w3.org/Graphics/SVG/1.1/DTD/svg11.dtd">
<svg version="1.1" id="Layer_1" xmlns="http://www.w3.org/2000/svg" xmlns:xlink="http://www.w3.org/1999/xlink" x="0px" y="0px"
	 width="36.625px" height="10.375px" viewBox="95.572 65.427 36.625 10.375" enable-background="new 95.572 65.427 36.625 10.375"
	 xml:space="preserve">
<g>
	<path fill="#FFFFFF" d="M130.904,65.854c-0.537,0-0.984,0.447-0.984,0.984v2.344c-0.501-0.304-1.092-0.465-1.718-0.465
		c-1.378,0-2.577,0.823-3.097,2.022c-0.519-1.199-1.717-2.022-3.096-2.022c-1.377,0-2.576,0.841-3.096,2.022
		c-0.519-1.199-1.718-2.022-3.096-2.022c-1.359,0-2.541,0.806-3.06,1.969v-3.848c0-0.537-0.447-0.984-0.984-0.984
		c-0.537,0-0.984,0.447-0.984,0.984v2.344c-0.501-0.304-1.092-0.465-1.718-0.465c-1.861,0-3.365,1.503-3.365,3.364
		s1.503,3.364,3.365,3.364c0.644,0,1.234-0.179,1.735-0.483c0.072,0.251,0.305,0.483,0.573,0.483h0.788
		c0.322,0,0.59-0.269,0.59-0.591v-1.378c0.537,1.163,1.701,1.969,3.06,1.969c1.378,0,2.577-0.841,3.096-2.022
		c0.52,1.199,1.719,2.022,3.096,2.022c1.379,0,2.577-0.841,3.096-2.022c0.52,1.182,1.701,2.022,3.097,2.022
		c0.644,0,1.234-0.179,1.735-0.483c0.072,0.251,0.305,0.483,0.572,0.483h0.788c0.322,0,0.591-0.269,0.591-0.591v-8.017
		C131.889,66.302,131.441,65.854,130.904,65.854z M109.072,73.746c-0.913,0-1.646-0.733-1.646-1.646
		c0-0.912,0.733-1.646,1.646-1.646c0.913,0,1.646,0.733,1.646,1.646C110.718,73.012,109.985,73.746,109.072,73.746z M115.818,73.746
		c-0.912,0-1.646-0.733-1.646-1.646c0-0.912,0.734-1.646,1.646-1.646s1.646,0.733,1.646,1.646
		C117.482,73.012,116.749,73.746,115.818,73.746z M122.01,73.746c-0.912,0-1.646-0.733-1.646-1.646c0-0.912,0.734-1.646,1.646-1.646
		c0.913,0,1.646,0.733,1.646,1.646C123.674,73.012,122.923,73.746,122.01,73.746z M128.202,73.746c-0.913,0-1.646-0.733-1.646-1.646
		c0-0.912,0.733-1.646,1.646-1.646s1.646,0.733,1.646,1.646C129.848,73.012,129.115,73.746,128.202,73.746z"/>
	<g>
		<path fill="#FFFFFF" d="M97.315,74.498c1.557,1.485,4.062,1.199,5.386-0.501c0.376-0.483,0.608-0.984,0.716-1.503
			c0.25-1.218-0.465-2.416-1.61-2.882c-1.736-0.716-1.432-1.933-1.074-2.595c0.143-0.286-0.089-0.608-0.394-0.572
			c-0.483,0.054-1.217,0.34-2.166,1.217C94.881,70.686,96.331,73.567,97.315,74.498z"/>
		<ellipse fill="#FFFFFF" cx="102.093" cy="68.055" rx="0.662" ry="0.662"/>
		<ellipse fill="#FFFFFF" cx="102.096" cy="66.354" rx="0.447" ry="0.447"/>
	</g>
</g>
</svg>
