<?xml version="1.0" encoding="utf-8"?>
<!-- Generator: Adobe Illustrator 16.0.0, SVG Export Plug-In . SVG Version: 6.00 Build 0)  -->
<!DOCTYPE svg PUBLIC "-//W3C//DTD SVG 1.1//EN" "http://www.w3.org/Graphics/SVG/1.1/DTD/svg11.dtd">
<svg version="1.1" id="Capa_1" xmlns="http://www.w3.org/2000/svg" xmlns:xlink="http://www.w3.org/1999/xlink" x="0px" y="0px"
	 width="278.333px" height="80px" viewBox="0 0 278.333 80" enable-background="new 0 0 278.333 80" xml:space="preserve">
<g>
	<defs>
		<path id="SVGID_1_" d="M89.303,52.169c0-6.976,5.656-12.63,12.631-12.63s12.63,5.654,12.63,12.63S108.909,64.8,101.934,64.8
			S89.303,59.145,89.303,52.169 M235.651,52.169c0-6.976,5.653-12.63,12.629-12.63c6.977,0,12.632,5.654,12.632,12.63
			S255.256,64.8,248.28,64.8C241.304,64.8,235.651,59.145,235.651,52.169 M140.973,52.169c0-6.985,5.664-12.648,12.646-12.648
			c6.986,0,12.65,5.663,12.65,12.648s-5.664,12.647-12.65,12.647C146.637,64.816,140.973,59.154,140.973,52.169 M188.319,52.169
			c0-6.985,5.664-12.648,12.65-12.648c6.985,0,12.646,5.663,12.646,12.648s-5.661,12.647-12.646,12.647
			C193.983,64.816,188.319,59.154,188.319,52.169 M261.389,12.025v17.93c-3.841-2.273-8.32-3.582-13.109-3.582
			c-10.569,0-19.65,6.363-23.635,15.462c-3.988-9.121-13.086-15.499-23.676-15.499c-10.589,0-19.687,6.376-23.675,15.496
			c-3.986-9.12-13.084-15.496-23.675-15.496c-10.423,0-19.397,6.179-23.479,15.069V12.025c0-4.17-3.379-7.549-7.548-7.549
			s-7.549,3.379-7.549,7.549v17.93c-3.842-2.273-8.321-3.582-13.109-3.582c-14.247,0-25.795,11.548-25.795,25.795
			s11.548,25.796,25.795,25.796c4.876,0,9.434-1.354,13.323-3.704c0.564,1.871,2.281,3.704,4.333,3.704h6.002
			c2.513,0,4.548-2.037,4.548-4.548V62.933C134.223,71.822,143.197,78,153.62,78c10.591,0,19.688-6.376,23.675-15.494
			C181.283,71.624,190.38,78,200.969,78c10.59,0,19.688-6.376,23.676-15.498c3.984,9.103,13.065,15.463,23.635,15.463
			c4.876,0,9.436-1.354,13.323-3.704c0.563,1.871,2.281,3.704,4.335,3.704h6.001c2.513,0,4.548-2.037,4.548-4.548V12.025
			c0-4.17-3.379-7.549-7.549-7.549C264.769,4.477,261.389,7.855,261.389,12.025"/>
	</defs>
	<clipPath id="SVGID_2_">
		<use xlink:href="#SVGID_1_"  overflow="visible"/>
	</clipPath>
	
		<linearGradient id="SVGID_3_" gradientUnits="userSpaceOnUse" x1="-2.3872" y1="89.4883" x2="-1.303" y2="89.4883" gradientTransform="matrix(7.0636 -80.7378 -80.7378 -7.0636 7414.4829 523.6426)">
		<stop  offset="0" style="stop-color:#297FBE"/>
		<stop  offset="1" style="stop-color:#4AA6DA"/>
	</linearGradient>
	<polygon clip-path="url(#SVGID_2_)" fill="url(#SVGID_3_)" points="69.754,77.441 77.66,-12.919 282.871,5.035 274.963,95.396 	"/>
</g>
<g>
	<defs>
		<path id="SVGID_4_" d="M35.071,8.998c-3.719,0.472-9.292,2.594-16.559,9.281c-25.106,23.107-14.021,45.18-6.54,52.327
			c11.919,11.384,31.044,9.141,41.208-3.833c2.842-3.629,4.721-7.513,5.513-11.442c1.882-9.32-3.539-18.463-12.317-22.113
			c-13.255-5.508-10.928-14.751-8.27-19.883c1.04-2.01-0.473-4.362-2.645-4.362C35.332,8.973,35.202,8.98,35.071,8.998"/>
	</defs>
	<clipPath id="SVGID_5_">
		<use xlink:href="#SVGID_4_"  overflow="visible"/>
	</clipPath>
	
		<linearGradient id="SVGID_6_" gradientUnits="userSpaceOnUse" x1="-2.4092" y1="89.7031" x2="-1.3248" y2="89.7031" gradientTransform="matrix(5.5682 -63.6444 -63.6444 -5.5682 5746.7017 423.6865)">
		<stop  offset="0" style="stop-color:#297FBE"/>
		<stop  offset="1" style="stop-color:#4AA6DA"/>
	</linearGradient>
	<polygon clip-path="url(#SVGID_5_)" fill="url(#SVGID_6_)" points="-12.934,81.436 -6.083,3.141 66.914,9.527 60.064,87.822 	"/>
</g>
<g>
	<path fill="#3FA0D7" d="M44.955,17.651c1.981-1.981,5.193-1.981,7.174,0c1.981,1.981,1.981,5.193,0,7.175
		c-1.981,1.981-5.193,1.981-7.174,0C42.973,22.845,42.973,19.633,44.955,17.651"/>
	<path fill="#3FA0D7" d="M46.102,5.764c1.348-1.348,3.533-1.348,4.881,0c1.348,1.348,1.348,3.533,0,4.881
		c-1.348,1.348-3.533,1.348-4.881,0C44.753,9.297,44.753,7.111,46.102,5.764"/>
</g>
</svg>
