<?xml version="1.0" encoding="utf-8"?>
<!-- Generator: Adobe Illustrator 20.1.0, SVG Export Plug-In . SVG Version: 6.00 Build 0)  -->
<svg version="1.1" id="Layer_1" xmlns="http://www.w3.org/2000/svg" xmlns:xlink="http://www.w3.org/1999/xlink" x="0px" y="0px"
	 viewBox="0 0 155.4 65.4" style="enable-background:new 0 0 155.4 65.4;" xml:space="preserve">
<style type="text/css">
	.st0{fill:#0F7ABC;}
	.st1{fill:url(#SVGID_1_);}
	.st2{fill:url(#SVGID_2_);}
	.st3{fill:#379FD8;}
</style>
<g>
	<g>
		<path class="st0" d="M70.8,51v14.1c0,0.2-0.1,0.3-0.3,0.3H70c-0.2,0-0.3-0.1-0.3-0.3V52.5l-4.9,10c-0.1,0.2-0.2,0.2-0.4,0.2h-0.6
			c-0.2,0-0.3-0.1-0.4-0.2l-4.9-10v12.6c0,0.2-0.1,0.3-0.3,0.3h-0.5c-0.2,0-0.3-0.1-0.3-0.3V51c0-0.2,0.1-0.3,0.3-0.3h0.5h0.4
			c0.2,0,0.3,0.1,0.4,0.2l5.1,10.6l5.1-10.6c0.1-0.2,0.2-0.2,0.4-0.2h0.5h0.3C70.7,50.7,70.8,50.8,70.8,51z"/>
		<path class="st0" d="M85.7,65.4h-0.5c-0.2,0-0.3-0.1-0.4-0.3l-1.3-3.5h-7.4l-1.3,3.5c-0.1,0.2-0.2,0.3-0.4,0.3h-0.5
			c-0.2,0-0.3-0.1-0.3-0.4L79.1,51c0.1-0.2,0.2-0.3,0.4-0.3h0.6c0.2,0,0.3,0.1,0.4,0.3L85.9,65C86,65.3,85.9,65.4,85.7,65.4z
			 M83.1,60.6l-3.3-8.5l-3.3,8.5H83.1z"/>
		<path class="st0" d="M97.5,50.7H98c0.2,0,0.3,0.1,0.3,0.3v14.1c0,0.2-0.1,0.3-0.3,0.3h-0.4c-0.2,0-0.3-0.1-0.4-0.2l-7.4-12.3v12.2
			c0,0.2-0.1,0.3-0.3,0.3H89c-0.2,0-0.3-0.1-0.3-0.3V51c0-0.2,0.1-0.3,0.3-0.3h0.4c0.2,0,0.3,0.1,0.4,0.2l7.4,12.3V51
			C97.2,50.8,97.3,50.7,97.5,50.7z"/>
		<path class="st0" d="M113.2,65.4h-0.5c-0.2,0-0.3-0.1-0.4-0.3l-1.3-3.5h-7.4l-1.3,3.5c-0.1,0.2-0.2,0.3-0.4,0.3h-0.5
			c-0.2,0-0.3-0.1-0.3-0.4l5.5-14.1c0.1-0.2,0.2-0.3,0.4-0.3h0.6c0.2,0,0.3,0.1,0.4,0.3l5.5,14.1C113.5,65.3,113.4,65.4,113.2,65.4z
			 M110.5,60.6l-3.3-8.5l-3.3,8.5H110.5z"/>
		<path class="st0" d="M128.9,58.2c0.2,0,0.3,0.1,0.3,0.3v0.7v5.9c0,0.2-0.1,0.3-0.3,0.3h-0.5c-0.2,0-0.3-0.1-0.3-0.3v-2.3
			c-1.1,1.9-3.3,2.8-5.6,2.8c-4.5,0-7.7-3.4-7.7-7.6s3.2-7.6,7.6-7.6c3,0,5.7,1.8,6.7,4.4c0.1,0.2,0,0.4-0.3,0.4h-0.6
			c-0.2,0-0.3-0.1-0.4-0.2c-0.9-2-3-3.4-5.5-3.4c-3.8,0-6.5,2.9-6.5,6.5s2.6,6.5,6.5,6.5c2.9,0,5.5-1.6,5.6-4.5v-0.8h-5.1
			c-0.2,0-0.3-0.1-0.3-0.3v-0.4c0-0.2,0.1-0.3,0.3-0.3L128.9,58.2L128.9,58.2z"/>
		<path class="st0" d="M141.3,64.7v0.4c0,0.2-0.1,0.3-0.3,0.3h-7.4h-0.2c-0.2,0-0.3-0.1-0.3-0.3V51c0-0.2,0.1-0.3,0.3-0.3h0.8h6.6
			c0.2,0,0.3,0.1,0.3,0.3v0.4c0,0.2-0.1,0.3-0.3,0.3h-6.6v5.7h6.1c0.2,0,0.3,0.1,0.3,0.3v0.4c0,0.2-0.1,0.3-0.3,0.3h-6.1v5.8h6.8
			C141.2,64.4,141.3,64.5,141.3,64.7z"/>
		<path class="st0" d="M155.4,65.4h-0.6c-0.2,0-0.3,0-0.4-0.2l-5.1-5.8h-3.6v5.7c0,0.2-0.1,0.3-0.3,0.3h-0.5c-0.2,0-0.3-0.1-0.3-0.3
			V51c0-0.2,0.1-0.3,0.3-0.3h0.8h3.9c2.4,0,4.3,1.9,4.3,4.3c0,2.1-1.4,3.8-3.4,4.2l5.1,5.7C155.8,65.2,155.7,65.4,155.4,65.4z
			 M145.6,58.3h3.9c1.8,0,3.2-1.5,3.2-3.3c0-1.8-1.4-3.3-3.2-3.3h-3.9V58.3z"/>
	</g>
</g>
<g>
	<linearGradient id="SVGID_1_" gradientUnits="userSpaceOnUse" x1="96.7801" y1="45.126" x2="101.1051" y2="-4.3089">
		<stop  offset="0" style="stop-color:#227DC1"/>
		<stop  offset="1" style="stop-color:#45A3DB"/>
	</linearGradient>
	<path class="st1" d="M150.2,0c-2.4,0-4.3,1.9-4.3,4.3v10.1c-2.2-1.3-4.7-2-7.4-2c-6,0-11.1,3.6-13.3,8.7c-2.3-5.1-7.4-8.8-13.4-8.8
		c-6,0-11.1,3.6-13.4,8.7c-2.3-5.1-7.4-8.7-13.4-8.7c-5.9,0-11,3.5-13.3,8.5V4.3c0-2.4-1.9-4.3-4.3-4.3c-2.4,0-4.3,1.9-4.3,4.3v10.1
		c-2.2-1.3-4.7-2-7.4-2c-8,0-14.6,6.5-14.6,14.6c0,8,6.5,14.6,14.6,14.6c2.8,0,5.3-0.8,7.5-2.1c0.3,1.1,1.3,2.1,2.4,2.1h3.4
		c1.4,0,2.6-1.1,2.6-2.6V33c2.3,5,7.4,8.5,13.3,8.5c6,0,11.1-3.6,13.4-8.7c2.3,5.1,7.4,8.7,13.4,8.7c6,0,11.1-3.6,13.4-8.8
		c2.2,5.1,7.4,8.7,13.3,8.7c2.8,0,5.3-0.8,7.5-2.1c0.3,1.1,1.3,2.1,2.4,2.1h3.4c1.4,0,2.6-1.1,2.6-2.6V4.3
		C154.4,1.9,152.5,0,150.2,0z M55.9,34.1c-3.9,0-7.1-3.2-7.1-7.1c0-3.9,3.2-7.1,7.1-7.1S63,23,63,26.9C63,30.9,59.8,34.1,55.9,34.1z
		 M85.1,34.1c-3.9,0-7.1-3.2-7.1-7.1c0-3.9,3.2-7.1,7.1-7.1c3.9,0,7.1,3.2,7.1,7.1C92.2,30.9,89,34.1,85.1,34.1z M111.8,34.1
		c-3.9,0-7.1-3.2-7.1-7.1c0-3.9,3.2-7.1,7.1-7.1c3.9,0,7.1,3.2,7.1,7.1C118.9,30.9,115.7,34.1,111.8,34.1z M138.5,34.1
		c-3.9,0-7.1-3.2-7.1-7.1c0-3.9,3.2-7.1,7.1-7.1c3.9,0,7.1,3.2,7.1,7.1C145.6,30.9,142.4,34.1,138.5,34.1z"/>
	<g>
		<linearGradient id="SVGID_2_" gradientUnits="userSpaceOnUse" x1="14.4489" y1="41.4582" x2="17.8582" y2="2.4894">
			<stop  offset="0" style="stop-color:#227DC1"/>
			<stop  offset="1" style="stop-color:#45A3DB"/>
		</linearGradient>
		<path class="st2" d="M5.1,37.3c6.7,6.4,17.5,5.2,23.3-2.2c1.6-2,2.7-4.2,3.1-6.5c1.1-5.3-2-10.4-7-12.5C17,13.1,18.3,7.9,19.8,5
			c0.6-1.2-0.4-2.6-1.7-2.4C16,2.8,12.9,4,8.8,7.8C-5.4,20.8,0.9,33.3,5.1,37.3z"/>
		<ellipse transform="matrix(0.7071 -0.7071 0.7071 0.7071 0.8449 20.968)" class="st3" cx="25.7" cy="9.5" rx="2.9" ry="2.9"/>
		<ellipse transform="matrix(0.7071 -0.7071 0.7071 0.7071 6.0486 18.8125)" class="st3" cx="25.7" cy="2.1" rx="1.9" ry="1.9"/>
	</g>
</g>
</svg>
